<svg width="17" height="18" viewBox="0 0 17 18" fill="none" xmlns="http://www.w3.org/2000/svg">
<path d="M0.337891 1.5C0.337891 0.947715 0.785606 0.5 1.33789 0.5H15.3379C15.8902 0.5 16.3379 0.947715 16.3379 1.5C16.3379 2.05228 15.8902 2.5 15.3379 2.5H1.33789C0.785606 2.5 0.337891 2.05228 0.337891 1.5ZM3.33789 16.5C3.33789 15.9477 3.78561 15.5 4.33789 15.5H12.3379C12.8902 15.5 13.3379 15.9477 13.3379 16.5C13.3379 17.0523 12.8902 17.5 12.3379 17.5H4.33789C3.78561 17.5 3.33789 17.0523 3.33789 16.5ZM3.33789 6.5C3.33789 5.94772 3.78561 5.5 4.33789 5.5H12.3379C12.8902 5.5 13.3379 5.94772 13.3379 6.5C13.3379 7.05228 12.8902 7.5 12.3379 7.5H4.33789C3.78561 7.5 3.33789 7.05228 3.33789 6.5ZM0.337891 11.5C0.337891 10.9477 0.785606 10.5 1.33789 10.5H15.3379C15.8902 10.5 16.3379 10.9477 16.3379 11.5C16.3379 12.0523 15.8902 12.5 15.3379 12.5H1.33789C0.785606 12.5 0.337891 12.0523 0.337891 11.5Z" fill="#52525B"/>
</svg>
