<svg width="19" height="18" viewBox="0 0 19 18" fill="none" xmlns="http://www.w3.org/2000/svg">
<path d="M0.337891 1.5C0.337891 0.947715 0.785606 0.5 1.33789 0.5H17.3379C17.8902 0.5 18.3379 0.947715 18.3379 1.5C18.3379 2.05228 17.8902 2.5 17.3379 2.5H1.33789C0.785606 2.5 0.337891 2.05228 0.337891 1.5ZM4.33789 16.5C4.33789 15.9477 4.78561 15.5 5.33789 15.5H17.3379C17.8902 15.5 18.3379 15.9477 18.3379 16.5C18.3379 17.0523 17.8902 17.5 17.3379 17.5H5.33789C4.78561 17.5 4.33789 17.0523 4.33789 16.5ZM0.337891 11.5C0.337891 10.9477 0.785606 10.5 1.33789 10.5H17.3379C17.8902 10.5 18.3379 10.9477 18.3379 11.5C18.3379 12.0523 17.8902 12.5 17.3379 12.5H1.33789C0.785606 12.5 0.337891 12.0523 0.337891 11.5ZM4.33789 6.5C4.33789 5.94772 4.78561 5.5 5.33789 5.5H17.3379C17.8902 5.5 18.3379 5.94772 18.3379 6.5C18.3379 7.05228 17.8902 7.5 17.3379 7.5H5.33789C4.78561 7.5 4.33789 7.05228 4.33789 6.5Z" fill="#52525B"/>
</svg>
