<svg width="19" height="18" viewBox="0 0 19 18" fill="none" xmlns="http://www.w3.org/2000/svg">
<path d="M0.337891 1.5C0.337891 0.947715 0.785606 0.5 1.33789 0.5H17.3379C17.8902 0.5 18.3379 0.947715 18.3379 1.5C18.3379 2.05228 17.8902 2.5 17.3379 2.5H1.33789C0.785606 2.5 0.337891 2.05228 0.337891 1.5ZM0.337891 16.5C0.337891 15.9477 0.785606 15.5 1.33789 15.5H11.3379C11.8902 15.5 12.3379 15.9477 12.3379 16.5C12.3379 17.0523 11.8902 17.5 11.3379 17.5H1.33789C0.785606 17.5 0.337891 17.0523 0.337891 16.5ZM0.337891 11.5C0.337891 10.9477 0.785606 10.5 1.33789 10.5H17.3379C17.8902 10.5 18.3379 10.9477 18.3379 11.5C18.3379 12.0523 17.8902 12.5 17.3379 12.5H1.33789C0.785606 12.5 0.337891 12.0523 0.337891 11.5ZM0.337891 6.5C0.337891 5.94772 0.785606 5.5 1.33789 5.5H11.3379C11.8902 5.5 12.3379 5.94772 12.3379 6.5C12.3379 7.05228 11.8902 7.5 11.3379 7.5H1.33789C0.785606 7.5 0.337891 7.05228 0.337891 6.5Z" fill="#52525B"/>
</svg>
