<svg width="13" height="16" viewBox="0 0 13 16" fill="none" xmlns="http://www.w3.org/2000/svg">
<path d="M2.33789 7H6.83789C7.50093 7 8.13682 6.73661 8.60566 6.26777C9.0745 5.79893 9.33789 5.16304 9.33789 4.5C9.33789 3.83696 9.0745 3.20107 8.60566 2.73223C8.13682 2.26339 7.50093 2 6.83789 2H2.33789V7ZM12.3379 11.5C12.3379 12.0909 12.2215 12.6761 11.9953 13.2221C11.7692 13.768 11.4377 14.2641 11.0199 14.682C10.602 15.0998 10.1059 15.4313 9.55997 15.6575C9.014 15.8836 8.42884 16 7.83789 16H0.987891C0.628906 16 0.337891 15.709 0.337891 15.35V0.65C0.337891 0.291015 0.628906 0 0.987891 0H6.83789C7.71885 3.69151e-05 8.58042 0.258653 9.31577 0.743778C10.0511 1.2289 10.6279 1.9192 10.9746 2.72907C11.3213 3.53894 11.4226 4.43276 11.2661 5.29969C11.1095 6.16663 10.7019 6.96854 10.0939 7.606C10.7765 8.0013 11.3432 8.56917 11.7371 9.25265C12.131 9.93612 12.3382 10.7112 12.3379 11.5ZM2.33789 9V14H7.83789C8.50093 14 9.13682 13.7366 9.60566 13.2678C10.0745 12.7989 10.3379 12.163 10.3379 11.5C10.3379 10.837 10.0745 10.2011 9.60566 9.73223C9.13682 9.26339 8.50093 9 7.83789 9H2.33789Z" fill="#52525B"/>
</svg>
