<svg width="17" height="16" viewBox="0 0 17 16" fill="none" xmlns="http://www.w3.org/2000/svg">
<path fill-rule="evenodd" clip-rule="evenodd" d="M5.33789 1C5.33789 0.447715 5.78561 0 6.33789 0H15.3379C15.8902 0 16.3379 0.447715 16.3379 1C16.3379 1.55228 15.8902 2 15.3379 2H11.5731L7.19808 14H10.3379C10.8902 14 11.3379 14.4477 11.3379 15C11.3379 15.5523 10.8902 16 10.3379 16H1.33789C0.785606 16 0.337891 15.5523 0.337891 15C0.337891 14.4477 0.785606 14 1.33789 14H5.1027L9.4777 2H6.33789C5.78561 2 5.33789 1.55228 5.33789 1Z" fill="#52525B"/>
</svg>
