<svg width="21" height="13" viewBox="0 0 21 13" fill="none" xmlns="http://www.w3.org/2000/svg">
<path d="M13.352 12.0345C12.7998 12.0345 12.3521 11.5868 12.3521 11.0346C12.3521 10.4824 12.7998 10.0348 13.352 10.0348H14.3518C14.8771 10.0348 15.3973 9.9313 15.8826 9.73028C16.3679 9.52926 16.8089 9.23461 17.1803 8.86317C17.5517 8.49172 17.8464 8.05076 18.0474 7.56544C18.2484 7.08013 18.3519 6.55997 18.3519 6.03467C18.3519 5.50937 18.2484 4.98921 18.0474 4.5039C17.8464 4.01858 17.5517 3.57761 17.1803 3.20617C16.8089 2.83472 16.3679 2.54008 15.8826 2.33905C15.3973 2.13803 14.8771 2.03456 14.3518 2.03456H13.352C12.7998 2.03456 12.3521 1.58692 12.3521 1.03472C12.3521 0.482515 12.7998 0.0348668 13.352 0.0348669L14.3518 0.034867C15.9346 0.0477571 17.4482 0.685556 18.5628 1.80934C19.6775 2.93312 20.3029 4.45183 20.3029 6.03467C20.3029 7.6175 19.6775 9.13622 18.5628 10.26C17.4482 11.3838 15.9346 12.0216 14.3518 12.0345H13.352ZM8.35129 11.0346C8.35129 11.5868 7.90365 12.0345 7.35145 12.0345H6.3516C5.55958 12.0409 4.77412 11.8905 4.04053 11.5919C3.30694 11.2932 2.63974 10.8523 2.0774 10.2945C1.51507 9.73678 1.06873 9.07318 0.764144 8.34205C0.459553 7.61092 0.302734 6.82671 0.302734 6.03467C0.302734 5.24263 0.459552 4.45842 0.764143 3.72729C1.06873 2.99615 1.51507 2.33256 2.0774 1.77479C2.63974 1.21701 3.30694 0.776096 4.04053 0.47747C4.77412 0.178843 5.55958 0.0284168 6.3516 0.0348669L7.35145 0.0348668C7.90365 0.0348667 8.35129 0.482515 8.35129 1.03472C8.35129 1.58692 7.90365 2.03456 7.35145 2.03456H6.3516C5.8263 2.03456 5.30614 2.13803 4.82082 2.33905C4.33551 2.54008 3.89454 2.83472 3.5231 3.20617C3.15165 3.57761 2.85701 4.01858 2.65598 4.5039C2.45496 4.98921 2.35149 5.50937 2.35149 6.03467C2.35149 6.55997 2.45496 7.08013 2.65598 7.56544C2.85701 8.05076 3.15165 8.49172 3.5231 8.86317C3.89454 9.23461 4.33551 9.52926 4.82082 9.73028C5.30614 9.9313 5.8263 10.0348 6.3516 10.0348H7.35145C7.90365 10.0348 8.35129 10.4824 8.35129 11.0346ZM14.3511 5.03411C14.9037 5.03411 15.3517 5.48206 15.3517 6.03463C15.3517 6.58723 14.9037 7.03519 14.3511 7.03515L6.35227 7.03459C5.80002 7.03455 5.3523 6.58695 5.3521 6.0347C5.35191 5.48215 5.79978 5.03411 6.35234 5.03411H14.3511Z" fill="#52525B"/>
</svg>
