<svg width="19" height="18" viewBox="0 0 19 18" fill="none" xmlns="http://www.w3.org/2000/svg">
<path d="M5.33789 2C5.33789 1.44772 5.78561 1 6.33789 1H17.3379C17.8902 1 18.3379 1.44772 18.3379 2C18.3379 2.55228 17.8902 3 17.3379 3H6.33789C5.78561 3 5.33789 2.55228 5.33789 2ZM0.337891 2C0.337891 1.17157 1.00946 0.5 1.83789 0.5C2.66632 0.5 3.33789 1.17157 3.33789 2C3.33789 2.82843 2.66632 3.5 1.83789 3.5C1.00946 3.5 0.337891 2.82843 0.337891 2ZM0.337891 9C0.337891 8.17157 1.00946 7.5 1.83789 7.5C2.66632 7.5 3.33789 8.17157 3.33789 9C3.33789 9.82843 2.66632 10.5 1.83789 10.5C1.00946 10.5 0.337891 9.82843 0.337891 9ZM0.337891 16C0.337891 15.1716 1.00946 14.5 1.83789 14.5C2.66632 14.5 3.33789 15.1716 3.33789 16C3.33789 16.8284 2.66632 17.5 1.83789 17.5C1.00946 17.5 0.337891 16.8284 0.337891 16ZM5.33789 9C5.33789 8.44772 5.78561 8 6.33789 8H17.3379C17.8902 8 18.3379 8.44772 18.3379 9C18.3379 9.55228 17.8902 10 17.3379 10H6.33789C5.78561 10 5.33789 9.55228 5.33789 9ZM5.33789 16C5.33789 15.4477 5.78561 15 6.33789 15H17.3379C17.8902 15 18.3379 15.4477 18.3379 16C18.3379 16.5523 17.8902 17 17.3379 17H6.33789C5.78561 17 5.33789 16.5523 5.33789 16Z" fill="#52525B"/>
</svg>
