<svg width="20" height="16" viewBox="0 0 20 16" fill="none" xmlns="http://www.w3.org/2000/svg">
<path fill-rule="evenodd" clip-rule="evenodd" d="M3.65932 2C3.27747 2 2.83789 2.35906 2.83789 2.96875V8.80246L5.47625 5.27263C5.50491 5.23429 5.53628 5.19806 5.57013 5.16421C6.54644 4.1879 8.12935 4.1879 9.10566 5.16421C9.12643 5.18499 9.14628 5.20667 9.16515 5.22919L12.7361 9.49235L13.8201 8.41421L13.8213 8.41304C14.7977 7.4379 16.3797 7.43829 17.3557 8.41421C17.3797 8.43829 17.4026 8.46358 17.4241 8.48999L17.8379 8.99833V2.96875C17.8379 2.35906 17.3983 2 17.0165 2H3.65932ZM19.8379 2.96875C19.8379 1.40382 18.6465 0 17.0165 0H3.65932C2.02927 0 0.837891 1.40382 0.837891 2.96875V14C0.837891 15.1046 1.73332 16 2.83789 16H17.8379C18.9425 16 19.8379 15.1046 19.8379 14V2.96875ZM17.8379 12.1662L15.9139 9.80285C15.7175 9.63357 15.4207 9.6421 15.2343 9.82843L15.2324 9.83034L13.3742 11.6785C13.1756 11.876 12.9034 11.9812 12.6236 11.9685C12.3438 11.9558 12.0822 11.8263 11.9024 11.6117L7.6678 6.55625C7.48462 6.39509 7.21172 6.39068 7.02364 6.54303L2.83789 12.1431V13.0312C2.83789 13.6409 3.27747 14 3.65932 14H17.0165C17.3983 14 17.8379 13.6409 17.8379 13.0312V12.1662Z" fill="#52525B"/>
<path d="M13.3379 6.5C14.1659 6.5 14.8379 5.8295 14.8379 5C14.8379 4.172 14.1659 3.5 13.3379 3.5C12.5099 3.5 11.8379 4.172 11.8379 5C11.8379 5.8295 12.5099 6.5 13.3379 6.5Z" fill="#52525B"/>
</svg>
