<svg width="19" height="16" viewBox="0 0 19 16" fill="none" xmlns="http://www.w3.org/2000/svg">
<path d="M14.4919 10C14.7219 10.516 14.8379 11.09 14.8379 11.72C14.8379 13.062 14.3139 14.112 13.2669 14.867C12.2179 15.622 10.7709 16 8.92389 16C7.47107 16 6.03159 15.701 4.60476 15.1023C4.26493 14.9597 4.05389 14.6211 4.05389 14.2526C4.05389 13.518 4.85664 13.0509 5.54233 13.3144C6.58527 13.7154 7.64435 13.916 8.71989 13.916C11.2709 13.916 12.5499 13.184 12.5589 11.719C12.5642 11.422 12.5095 11.1269 12.3982 10.8515C12.2868 10.5761 12.1211 10.3259 11.9109 10.116L11.7909 9.999H1.33789C0.785606 9.999 0.337891 9.55128 0.337891 8.999C0.337891 8.44671 0.785606 7.999 1.33789 7.999H17.3379C17.8902 7.999 18.3379 8.44671 18.3379 8.999C18.3379 9.55128 17.8902 9.999 17.3379 9.999H14.4919V10ZM10.3574 6.98054C10.3681 6.98422 10.3654 7 10.3541 7H4.97077C4.96827 7 4.96587 6.99907 4.96403 6.99739C4.78997 6.83838 4.62999 6.6646 4.48589 6.478C4.05389 5.92 3.83789 5.246 3.83789 4.452C3.83789 3.216 4.30389 2.165 5.23489 1.299C6.16789 0.433 7.60889 0 9.55989 0C10.8419 0 12.0761 0.249145 13.2611 0.747434C13.5838 0.883114 13.7819 1.206 13.7819 1.55603C13.7819 2.25972 13.0099 2.71303 12.3411 2.49425C11.5496 2.23534 10.7146 2.106 9.83589 2.106C7.35589 2.106 6.11689 2.888 6.11689 4.452C6.11689 4.872 6.33489 5.238 6.77089 5.551C7.20689 5.864 8.38389 6.301 8.38389 6.301L10.3574 6.98054Z" fill="#52525B"/>
</svg>
