<svg width="19" height="18" viewBox="0 0 19 18" fill="none" xmlns="http://www.w3.org/2000/svg">
<path d="M0.337891 17C0.337891 16.4477 0.785606 16 1.33789 16H17.3379C17.8902 16 18.3379 16.4477 18.3379 17C18.3379 17.5523 17.8902 18 17.3379 18H1.33789C0.785606 18 0.337891 17.5523 0.337891 17Z" fill="#52525B"/>
<path d="M12.8339 11H5.84189L4.49333 14.3714C4.34147 14.7511 3.97377 15 3.56488 15C2.85744 15 2.37369 14.2855 2.63643 13.6287L8.08645 0.628609C8.23831 0.24895 8.60602 0 9.01492 0H9.66086C10.0698 0 10.4375 0.248951 10.5893 0.628609L16.0394 13.6287C16.3021 14.2855 15.8183 15 15.1109 15C14.702 15 14.3343 14.7511 14.1825 14.3714L12.8339 11ZM12.0339 9L9.33789 2.885L6.64189 9H12.0339Z" fill="#52525B"/>
</svg>
