<svg width="15" height="18" viewBox="0 0 15 18" fill="none" xmlns="http://www.w3.org/2000/svg">
<path d="M3.33789 1C3.33789 0.447715 2.89018 0 2.33789 0C1.78561 0 1.33789 0.447715 1.33789 1V8C1.33789 11.866 2.33789 15 7.33789 15C12.3379 15 13.3379 11.866 13.3379 8V1C13.3379 0.447715 12.8902 0 12.3379 0C11.7856 0 11.3379 0.447715 11.3379 1V8C11.3379 10.7614 11.3379 13 7.33789 13C3.33789 13 3.33789 10.7614 3.33789 8V1Z" fill="#52525B"/>
<path d="M1.33789 16C0.785606 16 0.337891 16.4477 0.337891 17C0.337891 17.5523 0.785606 18 1.33789 18H13.3379C13.8902 18 14.3379 17.5523 14.3379 17C14.3379 16.4477 13.8902 16 13.3379 16H1.33789Z" fill="#52525B"/>
</svg>
