<svg width="24" height="25" viewBox="0 0 24 25" fill="none" xmlns="http://www.w3.org/2000/svg">
<path d="M12.002 4.96094C12.0129 4.96094 18.8797 4.96147 20.5977 5.42676C21.5446 5.67901 22.2897 6.42815 22.542 7.38281C22.9999 9.10984 22.9961 12.7109 22.9961 12.7109C22.9961 12.7361 22.9944 16.3182 22.5381 18.0391C22.2858 18.9898 21.5407 19.739 20.5938 19.9951C18.8781 20.4569 11.998 20.457 11.998 20.457C11.9875 20.457 5.11662 20.4565 3.40234 19.9951C2.45544 19.7429 1.71026 18.9937 1.45801 18.0391C1.00169 16.3182 1.00001 12.7361 1 12.7109C1 12.7109 1.00016 9.10981 1.46191 7.37891C1.71416 6.42812 2.45935 5.67898 3.40625 5.42285C5.12178 4.96108 12.002 4.96094 12.002 4.96094ZM9.75098 15.9824L15.502 12.7109L9.75098 9.43945V15.9824Z" fill="#BDBDBD"/>
</svg>
