<svg width="24" height="25" viewBox="0 0 24 25" fill="none" xmlns="http://www.w3.org/2000/svg">
<path d="M11.9999 9.54492C10.2882 9.54492 8.83325 10.9999 8.83325 12.7116C8.83325 14.4233 10.2882 15.8783 11.9999 15.8783C13.7116 15.8783 15.1666 14.4233 15.1666 12.7116C15.1666 10.9999 13.7116 9.54492 11.9999 9.54492Z" fill="#BDBDBD"/>
<path d="M16.0591 3.21094H8.02727C4.91818 3.21094 2.5 5.62912 2.5 8.65185V16.6837C2.5 19.7928 4.91818 22.2109 8.02727 22.2109H16.0591C19.0818 22.2109 21.5 19.7928 21.5 16.6837V8.65185C21.5 5.62912 19.0818 3.21094 16.0591 3.21094ZM12 17.72C9.23636 17.72 7.07727 15.4746 7.07727 12.7973C7.07727 10.12 9.23636 7.78821 12 7.78821C14.7636 7.78821 16.9227 10.0337 16.9227 12.7109C16.9227 15.3882 14.7636 17.72 12 17.72ZM17.0955 8.82457C16.4909 8.82457 15.9727 8.30639 15.9727 7.70185C15.9727 7.0973 16.4909 6.57912 17.0955 6.57912C17.7 6.57912 18.2182 7.0973 18.2182 7.70185C18.2182 8.30639 17.7 8.82457 17.0955 8.82457Z" fill="#BDBDBD"/>
</svg>
