<svg width="24" height="25" viewBox="0 0 24 25" fill="none" xmlns="http://www.w3.org/2000/svg">
<path d="M5.7677 10.6035C5.52799 10.6035 5.31492 10.698 5.15512 10.8734C4.982 11.0488 4.9021 11.2647 4.9021 11.5211C4.9021 11.7774 4.982 11.9798 5.15512 12.1687C5.32824 12.3441 5.52799 12.4386 5.7677 12.4386C6.0074 12.4386 6.22047 12.3441 6.39359 12.1687C6.56671 11.9933 6.65993 11.7774 6.65993 11.5211C6.65993 11.2647 6.56671 11.0488 6.39359 10.8734C6.22047 10.6845 6.02072 10.6035 5.7677 10.6035Z" fill="#BDBDBD"/>
<path d="M13.2384 10.5898C12.9987 10.5898 12.7856 10.6843 12.6258 10.8597C12.4527 11.0351 12.3728 11.251 12.3728 11.5074C12.3728 11.7638 12.4527 11.9662 12.6258 12.1551C12.7989 12.3305 12.9987 12.4249 13.2384 12.4249C13.4781 12.4249 13.6912 12.3305 13.8643 12.1551C14.0374 11.9796 14.1306 11.7638 14.1306 11.5074C14.1306 11.251 14.0374 11.0486 13.8643 10.8597C13.7045 10.6708 13.4914 10.5898 13.2384 10.5898Z" fill="#BDBDBD"/>
<path d="M18.2323 10.6035C17.9926 10.6035 17.7795 10.698 17.6197 10.8734C17.4466 11.0488 17.3667 11.2647 17.3667 11.5211C17.3667 11.7774 17.4466 11.9798 17.6197 12.1687C17.7928 12.3441 17.9926 12.4386 18.2323 12.4386C18.472 12.4386 18.6851 12.3441 18.8582 12.1687C19.0313 11.9933 19.1245 11.7774 19.1245 11.5211C19.1245 11.2647 19.0313 11.0488 18.8582 10.8734C18.6851 10.6845 18.472 10.6035 18.2323 10.6035Z" fill="#BDBDBD"/>
<path d="M20.4429 3.9375H3.55704C2.2653 3.9375 1.19995 5.01696 1.19995 6.32581V16.0005C1.19995 17.3093 2.2653 18.3888 3.55704 18.3888H10.1889C10.1889 18.3888 11.4673 21.9375 11.9334 21.9375C12.3995 21.9375 13.7844 18.3888 13.7844 18.3888H20.4429C21.7346 18.3888 22.8 17.3093 22.8 16.0005V6.32581C22.8 5.01696 21.7346 3.9375 20.4429 3.9375ZM7.47221 12.87C7.13929 13.2478 6.61993 13.4098 6.06062 13.4098C5.55457 13.4098 5.1817 13.2613 4.91536 13.0454H4.90205V13.3153H3.63694V7.71561H4.90205V9.86104H4.92868C5.27492 9.56419 5.72769 9.46973 6.26037 9.44275C6.71315 9.42925 7.19255 9.71261 7.48553 10.0499C7.76518 10.3873 7.97825 10.9135 7.97825 11.4937C7.97825 12.1279 7.81845 12.4922 7.47221 12.87ZM10.2022 13.3693H8.91043C8.91043 13.3693 8.91043 10.4278 8.91043 9.90152C8.91043 9.10542 8.28454 8.99747 8.28454 8.99747V7.60766C8.28454 7.60766 10.0956 7.71561 10.2022 9.942C10.2022 10.5762 10.2022 13.3693 10.2022 13.3693ZM15.2759 12.3033C15.1694 12.5597 15.0096 12.7756 14.7965 12.978C14.5967 13.1669 14.357 13.3153 14.0907 13.4233C13.8244 13.5312 13.5447 13.5852 13.2517 13.5852C12.9588 13.5852 12.6791 13.5312 12.4261 13.4233C12.1598 13.3153 11.9201 13.1669 11.7203 12.978C11.5072 12.7756 11.3474 12.5462 11.2409 12.3033C11.1344 12.0604 11.0811 11.7906 11.0811 11.5072C11.0811 11.2239 11.1344 10.9675 11.2409 10.7111C11.3474 10.4682 11.5072 10.2388 11.7203 10.0365C11.9334 9.84755 12.1598 9.69912 12.4261 9.59117C12.6924 9.48323 12.9721 9.42925 13.2517 9.42925C13.5447 9.42925 13.8244 9.48323 14.0907 9.59117C14.357 9.69912 14.5967 9.84755 14.7965 10.0365C15.0096 10.2388 15.1561 10.4547 15.2759 10.7111C15.3824 10.9675 15.4357 11.2239 15.4357 11.5072C15.4357 11.7906 15.3824 12.0469 15.2759 12.3033ZM20.363 12.8565C20.363 13.8415 20.1765 14.4353 19.7504 14.8535C19.231 15.3528 18.4986 15.3798 17.886 15.2988V14.2868C18.4054 14.3408 19.1112 13.99 19.1112 13.3153V13.0589H19.0979C18.8049 13.4637 18.3921 13.6122 17.8194 13.6122C17.3001 13.6122 16.8473 13.4233 16.541 13.0589C16.2347 12.6946 16.0882 12.2089 16.0882 11.6017C16.0882 10.9135 16.2614 10.3738 16.5943 9.96898C16.9405 9.56419 17.4199 9.37528 17.9792 9.37528C18.472 9.37528 18.7916 9.49672 19.0979 9.78008H19.1112V9.46973H20.3763V12.8565H20.363Z" fill="#BDBDBD"/>
</svg>
